<mxfile host="app.diagrams.net" modified="2021-12-15T16:07:28.451Z" agent="5.0 (Windows NT 10.0; Win64; x64) AppleWebKit/537.36 (KHTML, like Gecko) Chrome/96.0.4664.93 Safari/537.36" etag="ojF6twm26T4n97UTb53t" version="15.9.6" type="github">
  <diagram name="Page-1" id="9f46799a-70d6-7492-0946-bef42562c5a5">
    <mxGraphModel dx="1422" dy="882" grid="1" gridSize="10" guides="1" tooltips="1" connect="1" arrows="1" fold="1" page="1" pageScale="1" pageWidth="1100" pageHeight="850" background="none" math="0" shadow="0">
      <root>
        <mxCell id="0" />
        <mxCell id="1" parent="0" />
        <mxCell id="iLu67vJAD6fTXzTy37Ox-1" value="User" style="shape=umlActor;verticalLabelPosition=bottom;verticalAlign=top;html=1;outlineConnect=0;" vertex="1" parent="1">
          <mxGeometry x="60" y="280" width="60" height="120" as="geometry" />
        </mxCell>
        <mxCell id="iLu67vJAD6fTXzTy37Ox-27" value="" style="rounded=1;whiteSpace=wrap;html=1;dashed=1;fillColor=#D4E1F5;" vertex="1" parent="1">
          <mxGeometry x="220" y="200" width="720" height="480" as="geometry" />
        </mxCell>
        <mxCell id="iLu67vJAD6fTXzTy37Ox-13" value="" style="rounded=1;whiteSpace=wrap;html=1;fillColor=#F19C99;" vertex="1" parent="1">
          <mxGeometry x="270" y="240" width="200" height="220" as="geometry" />
        </mxCell>
        <mxCell id="iLu67vJAD6fTXzTy37Ox-11" value="" style="shape=image;html=1;verticalLabelPosition=bottom;verticalAlign=top;imageAspect=0;image=https://i.pinimg.com/originals/96/34/1c/96341ca82621a5e1f620bebf35b90f3c.jpg;" vertex="1" parent="1">
          <mxGeometry x="285" y="270" width="170" height="120" as="geometry" />
        </mxCell>
        <mxCell id="iLu67vJAD6fTXzTy37Ox-12" value="Front end&lt;br&gt;React, typescript" style="text;html=1;strokeColor=none;fillColor=none;align=center;verticalAlign=middle;whiteSpace=wrap;rounded=0;" vertex="1" parent="1">
          <mxGeometry x="320" y="400" width="110" height="30" as="geometry" />
        </mxCell>
        <mxCell id="iLu67vJAD6fTXzTy37Ox-15" value="" style="rounded=1;whiteSpace=wrap;html=1;fillColor=#9AC7BF;" vertex="1" parent="1">
          <mxGeometry x="550" y="240" width="360" height="380" as="geometry" />
        </mxCell>
        <mxCell id="iLu67vJAD6fTXzTy37Ox-14" value="" style="shape=image;html=1;verticalLabelPosition=bottom;verticalAlign=top;imageAspect=0;image=https://st2.depositphotos.com/4845131/7223/v/600/depositphotos_72231263-stock-illustration-data-hdd-icon.jpg;" vertex="1" parent="1">
          <mxGeometry x="800" y="490" width="60" height="60" as="geometry" />
        </mxCell>
        <mxCell id="iLu67vJAD6fTXzTy37Ox-16" value="" style="shape=image;html=1;verticalLabelPosition=bottom;verticalAlign=top;imageAspect=0;image=https://img.myloview.com/stickers/server-infrastructure-icon-outline-server-infrastructure-vector-icon-for-web-design-isolated-on-white-background-700-200688620.jpg;" vertex="1" parent="1">
          <mxGeometry x="665" y="290" width="120" height="120" as="geometry" />
        </mxCell>
        <mxCell id="iLu67vJAD6fTXzTy37Ox-18" value="" style="sketch=0;pointerEvents=1;shadow=0;dashed=0;html=1;strokeColor=none;fillColor=#434445;aspect=fixed;labelPosition=center;verticalLabelPosition=bottom;verticalAlign=top;align=center;outlineConnect=0;shape=mxgraph.vvd.folder;" vertex="1" parent="1">
          <mxGeometry x="590" y="500" width="50" height="38" as="geometry" />
        </mxCell>
        <mxCell id="iLu67vJAD6fTXzTy37Ox-19" value="App logic&lt;br&gt;typescript" style="text;html=1;strokeColor=none;fillColor=none;align=center;verticalAlign=middle;whiteSpace=wrap;rounded=0;" vertex="1" parent="1">
          <mxGeometry x="700" y="250" width="60" height="30" as="geometry" />
        </mxCell>
        <mxCell id="iLu67vJAD6fTXzTy37Ox-20" value="File system&lt;br&gt;Images" style="text;html=1;strokeColor=none;fillColor=none;align=center;verticalAlign=middle;whiteSpace=wrap;rounded=0;" vertex="1" parent="1">
          <mxGeometry x="570" y="550" width="80" height="30" as="geometry" />
        </mxCell>
        <mxCell id="iLu67vJAD6fTXzTy37Ox-21" value="Web server" style="text;html=1;strokeColor=none;fillColor=none;align=center;verticalAlign=middle;whiteSpace=wrap;rounded=0;fontSize=14;fontStyle=1" vertex="1" parent="1">
          <mxGeometry x="686.25" y="425" width="87.5" height="30" as="geometry" />
        </mxCell>
        <mxCell id="iLu67vJAD6fTXzTy37Ox-25" value="Databases&lt;br&gt;Firebase" style="text;html=1;strokeColor=none;fillColor=none;align=center;verticalAlign=middle;whiteSpace=wrap;rounded=0;" vertex="1" parent="1">
          <mxGeometry x="800" y="560" width="60" height="30" as="geometry" />
        </mxCell>
        <mxCell id="iLu67vJAD6fTXzTy37Ox-26" value="Backend" style="text;html=1;strokeColor=none;fillColor=none;align=center;verticalAlign=middle;whiteSpace=wrap;rounded=0;" vertex="1" parent="1">
          <mxGeometry x="695" y="580" width="60" height="30" as="geometry" />
        </mxCell>
        <mxCell id="iLu67vJAD6fTXzTy37Ox-28" value="Web app architecture" style="text;html=1;strokeColor=none;fillColor=none;align=center;verticalAlign=middle;whiteSpace=wrap;rounded=0;dashed=1;fontSize=24;" vertex="1" parent="1">
          <mxGeometry x="450" y="640" width="245" height="30" as="geometry" />
        </mxCell>
        <mxCell id="iLu67vJAD6fTXzTy37Ox-31" value="" style="endArrow=classic;html=1;rounded=0;fontSize=24;strokeWidth=3;" edge="1" parent="1">
          <mxGeometry relative="1" as="geometry">
            <mxPoint x="130" y="320" as="sourcePoint" />
            <mxPoint x="270" y="320" as="targetPoint" />
          </mxGeometry>
        </mxCell>
        <mxCell id="iLu67vJAD6fTXzTy37Ox-32" value="Inputs data" style="edgeLabel;resizable=0;html=1;align=center;verticalAlign=middle;dashed=1;fontSize=18;fillColor=#FFE599;" connectable="0" vertex="1" parent="iLu67vJAD6fTXzTy37Ox-31">
          <mxGeometry relative="1" as="geometry" />
        </mxCell>
        <mxCell id="iLu67vJAD6fTXzTy37Ox-33" value="" style="endArrow=classic;html=1;rounded=0;fontSize=18;exitX=0;exitY=0.545;exitDx=0;exitDy=0;exitPerimeter=0;strokeWidth=3;" edge="1" parent="1" source="iLu67vJAD6fTXzTy37Ox-13">
          <mxGeometry relative="1" as="geometry">
            <mxPoint x="150" y="360" as="sourcePoint" />
            <mxPoint x="130" y="360" as="targetPoint" />
          </mxGeometry>
        </mxCell>
        <mxCell id="iLu67vJAD6fTXzTy37Ox-34" value="Display" style="edgeLabel;resizable=0;html=1;align=center;verticalAlign=middle;dashed=1;fontSize=18;fillColor=#FFE599;" connectable="0" vertex="1" parent="iLu67vJAD6fTXzTy37Ox-33">
          <mxGeometry relative="1" as="geometry" />
        </mxCell>
        <mxCell id="iLu67vJAD6fTXzTy37Ox-35" value="" style="endArrow=classic;html=1;rounded=0;fontSize=18;strokeWidth=3;entryX=0;entryY=0.25;entryDx=0;entryDy=0;" edge="1" parent="1" target="iLu67vJAD6fTXzTy37Ox-16">
          <mxGeometry relative="1" as="geometry">
            <mxPoint x="470" y="320" as="sourcePoint" />
            <mxPoint x="570" y="320" as="targetPoint" />
          </mxGeometry>
        </mxCell>
        <mxCell id="iLu67vJAD6fTXzTy37Ox-36" value="Request" style="edgeLabel;resizable=0;html=1;align=center;verticalAlign=middle;dashed=1;fontSize=18;fillColor=#FFE599;" connectable="0" vertex="1" parent="iLu67vJAD6fTXzTy37Ox-35">
          <mxGeometry relative="1" as="geometry" />
        </mxCell>
        <mxCell id="iLu67vJAD6fTXzTy37Ox-37" value="" style="endArrow=classic;html=1;rounded=0;fontSize=18;strokeWidth=3;entryX=0.995;entryY=0.591;entryDx=0;entryDy=0;entryPerimeter=0;exitX=0;exitY=0.667;exitDx=0;exitDy=0;exitPerimeter=0;" edge="1" parent="1" source="iLu67vJAD6fTXzTy37Ox-16" target="iLu67vJAD6fTXzTy37Ox-13">
          <mxGeometry relative="1" as="geometry">
            <mxPoint x="510" y="370" as="sourcePoint" />
            <mxPoint x="610" y="370" as="targetPoint" />
          </mxGeometry>
        </mxCell>
        <mxCell id="iLu67vJAD6fTXzTy37Ox-38" value="Response" style="edgeLabel;resizable=0;html=1;align=center;verticalAlign=middle;dashed=1;fontSize=18;fillColor=#FFE599;" connectable="0" vertex="1" parent="iLu67vJAD6fTXzTy37Ox-37">
          <mxGeometry relative="1" as="geometry" />
        </mxCell>
        <mxCell id="iLu67vJAD6fTXzTy37Ox-39" value="" style="endArrow=classic;startArrow=classic;html=1;rounded=0;fontSize=18;strokeWidth=3;" edge="1" parent="1" source="iLu67vJAD6fTXzTy37Ox-18">
          <mxGeometry width="50" height="50" relative="1" as="geometry">
            <mxPoint x="630" y="490" as="sourcePoint" />
            <mxPoint x="680" y="440" as="targetPoint" />
            <Array as="points">
              <mxPoint x="615" y="440" />
            </Array>
          </mxGeometry>
        </mxCell>
        <mxCell id="iLu67vJAD6fTXzTy37Ox-40" value="" style="endArrow=classic;startArrow=classic;html=1;rounded=0;fontSize=14;strokeWidth=3;entryX=1;entryY=0.5;entryDx=0;entryDy=0;exitX=0.408;exitY=0;exitDx=0;exitDy=0;exitPerimeter=0;" edge="1" parent="1" source="iLu67vJAD6fTXzTy37Ox-14" target="iLu67vJAD6fTXzTy37Ox-21">
          <mxGeometry width="50" height="50" relative="1" as="geometry">
            <mxPoint x="670" y="550" as="sourcePoint" />
            <mxPoint x="720" y="500" as="targetPoint" />
            <Array as="points">
              <mxPoint x="824" y="440" />
            </Array>
          </mxGeometry>
        </mxCell>
      </root>
    </mxGraphModel>
  </diagram>
</mxfile>
